<svg width="15" height="16" viewBox="0 0 15 16" fill="none" xmlns="http://www.w3.org/2000/svg">
<g id="instagram icon">
<g id="Group">
<path id="Vector" d="M7.50001 1.85134C9.50258 1.85134 9.7398 1.859 10.5306 1.89508C11.2619 1.92842 11.659 2.0506 11.9233 2.15331C12.2734 2.28937 12.5232 2.45189 12.7856 2.71432C13.0481 2.97678 13.2106 3.22662 13.3467 3.5767C13.4494 3.84098 13.5716 4.2381 13.6049 4.96934C13.641 5.76018 13.6486 5.9974 13.6486 7.99996C13.6486 10.0025 13.641 10.2398 13.6049 11.0306C13.5716 11.7618 13.4494 12.159 13.3467 12.4232C13.2106 12.7733 13.0481 13.0232 12.7857 13.2856C12.5232 13.5481 12.2734 13.7106 11.9233 13.8466C11.659 13.9493 11.2619 14.0715 10.5306 14.1049C9.73992 14.141 9.50273 14.1486 7.50001 14.1486C5.49727 14.1486 5.26011 14.141 4.46936 14.1049C3.73811 14.0715 3.34099 13.9493 3.07671 13.8466C2.72663 13.7106 2.47679 13.5481 2.21436 13.2856C1.95193 13.0232 1.78937 12.7733 1.65332 12.4232C1.55061 12.159 1.42843 11.7618 1.39508 11.0306C1.359 10.2398 1.35135 10.0025 1.35135 7.99996C1.35135 5.9974 1.359 5.76018 1.39508 4.96934C1.42843 4.2381 1.55061 3.84098 1.65332 3.5767C1.78937 3.22662 1.9519 2.97678 2.21436 2.71435C2.47679 2.45189 2.72663 2.28937 3.07671 2.15331C3.34099 2.0506 3.73811 1.92842 4.46936 1.89508C5.2602 1.859 5.49742 1.85134 7.50001 1.85134ZM7.50001 0.5C5.46312 0.5 5.20771 0.508634 4.40776 0.545133C3.60947 0.581543 3.06427 0.708339 2.58721 0.893724C2.09402 1.08539 1.67577 1.34184 1.25879 1.75879C0.841843 2.17576 0.585393 2.59402 0.393755 3.08721C0.20834 3.56426 0.0815436 4.10946 0.0451333 4.90774C0.00863368 5.7077 0 5.9631 0 7.99996C0 10.0368 0.00863368 10.2923 0.0451333 11.0922C0.0815436 11.8905 0.20834 12.4357 0.393755 12.9127C0.585393 13.4059 0.841843 13.8242 1.25879 14.2412C1.67577 14.6581 2.09402 14.9146 2.58721 15.1062C3.06427 15.2916 3.60947 15.4184 4.40776 15.4548C5.20771 15.4913 5.46312 15.4999 7.50001 15.4999C9.53688 15.4999 9.79228 15.4913 10.5922 15.4548C11.3905 15.4184 11.9357 15.2916 12.4128 15.1062C12.906 14.9146 13.3242 14.6581 13.7412 14.2412C14.1582 13.8242 14.4146 13.4059 14.6063 12.9127C14.7917 12.4357 14.9185 11.8905 14.9549 11.0922C14.9914 10.2923 15 10.0368 15 7.99996C15 5.9631 14.9914 5.7077 14.9549 4.90774C14.9185 4.10946 14.7917 3.56426 14.6063 3.08721C14.4146 2.59402 14.1582 2.17576 13.7412 1.75879C13.3242 1.34184 12.906 1.08539 12.4128 0.893724C11.9357 0.708339 11.3905 0.581543 10.5922 0.545133C9.79228 0.508634 9.53688 0.5 7.50001 0.5Z" fill="white"/>
</g>
<g id="Group_2">
<path id="Vector_2" d="M7.50352 4.1521C5.37645 4.1521 3.65216 5.87639 3.65216 8.00342C3.65216 10.1305 5.37645 11.8548 7.50352 11.8548C9.63056 11.8548 11.3549 10.1305 11.3549 8.00342C11.3549 5.87639 9.63056 4.1521 7.50352 4.1521ZM7.50352 10.5034C6.12279 10.5034 5.00351 9.38415 5.00351 8.00342C5.00351 6.62272 6.12279 5.50344 7.50352 5.50344C8.88423 5.50344 10.0035 6.62272 10.0035 8.00342C10.0035 9.38415 8.88423 10.5034 7.50352 10.5034Z" fill="white"/>
</g>
<g id="Group_3">
<path id="Vector_3" d="M12.4068 3.99755C12.4068 4.49458 12.0038 4.89753 11.5067 4.89753C11.0097 4.89753 10.6068 4.49458 10.6068 3.99755C10.6068 3.50049 11.0097 3.09753 11.5067 3.09753C12.0038 3.09753 12.4068 3.50049 12.4068 3.99755Z" fill="white"/>
</g>
</g>
</svg>
