<svg width="14" height="14" viewBox="0 0 14 14" fill="none" xmlns="http://www.w3.org/2000/svg">
<g id="linkedin icon">
<g id="Group">
<path id="Vector" fill-rule="evenodd" clip-rule="evenodd" d="M3.23422 1.92743C3.23422 2.70561 2.6417 3.33538 1.7151 3.33538C0.824597 3.33538 0.232077 2.70561 0.250414 1.92743C0.232077 1.11143 0.824583 0.5 1.73285 0.5C2.64168 0.5 3.21645 1.11143 3.23422 1.92743ZM0.324912 13.5119V4.44763H3.14195V13.5113H0.324912V13.5119Z" fill="white"/>
</g>
<g id="Group_2">
<path id="Vector_2" fill-rule="evenodd" clip-rule="evenodd" d="M5.39988 7.34032C5.39988 6.20973 5.36263 5.24588 5.32538 4.44879H7.77224L7.90231 5.69056H7.95791C8.32866 5.1158 9.25526 4.24536 10.7566 4.24536C12.6098 4.24536 14 5.46879 14 8.13684V13.5131H11.183V8.48983C11.183 7.32141 10.7755 6.52489 9.7561 6.52489C8.97734 6.52489 8.51433 7.0624 8.32924 7.581C8.25475 7.76666 8.21807 8.02567 8.21807 8.28583V13.5131H5.40101V7.34032H5.39988Z" fill="white"/>
</g>
</g>
</svg>
