<svg width="15" height="13" viewBox="0 0 15 13" fill="none" xmlns="http://www.w3.org/2000/svg">
<g id="Twitter">
<g id="twitter icon">
<path id="Vector" fill-rule="evenodd" clip-rule="evenodd" d="M15 2.1929C14.4485 2.43789 13.8551 2.60287 13.2326 2.67737C13.8681 2.29639 14.356 1.69344 14.5855 0.974983C13.9916 1.32796 13.3321 1.58344 12.6317 1.72194C12.0702 1.12398 11.2697 0.75 10.3853 0.75C8.68592 0.75 7.30801 2.12791 7.30801 3.82729C7.30801 4.06828 7.33551 4.30326 7.38801 4.52875C4.83018 4.40076 2.56283 3.17534 1.04493 1.31346C0.779948 1.76793 0.628458 2.2964 0.628458 2.86036C0.628458 3.92779 1.17092 4.86973 1.99737 5.42169C1.4924 5.40569 1.01843 5.2672 0.602959 5.03672V5.07521C0.602959 6.56661 1.66439 7.81003 3.07129 8.09351C2.81331 8.16351 2.54133 8.20151 2.26085 8.20151C2.06236 8.20151 1.86937 8.182 1.68139 8.14601C2.07286 9.36842 3.20979 10.2584 4.5562 10.2834C3.50327 11.1083 2.17635 11.6008 0.73445 11.6008C0.485467 11.6008 0.240484 11.5863 0 11.5573C1.36191 12.4302 2.9793 12.9402 4.71718 12.9402C10.3773 12.9402 13.4726 8.251 13.4726 4.18477C13.4726 4.05128 13.4701 3.91829 13.4636 3.7868C14.0656 3.35183 14.5875 2.80986 15 2.1929Z" fill="white"/>
</g>
</g>
</svg>
